<mxfile host="app.diagrams.net" modified="2024-03-01T23:57:23.111Z" agent="Mozilla/5.0 (Windows NT 10.0; Win64; x64; rv:122.0) Gecko/20100101 Firefox/122.0" etag="gd4HFOXnsvY6RMyG6xMX" version="24.0.0" type="github">
  <diagram name="Page-1" id="C59KwHyc6oLbRC7iMDjr">
    <mxGraphModel dx="1062" dy="559" grid="1" gridSize="10" guides="1" tooltips="1" connect="1" arrows="1" fold="1" page="1" pageScale="1" pageWidth="1100" pageHeight="850" math="0" shadow="0">
      <root>
        <mxCell id="0" />
        <mxCell id="1" parent="0" />
        <mxCell id="xoOHMYo-G51hBnDnLJZp-4" value="" style="edgeStyle=orthogonalEdgeStyle;rounded=0;orthogonalLoop=1;jettySize=auto;html=1;" edge="1" parent="1" source="xoOHMYo-G51hBnDnLJZp-1" target="xoOHMYo-G51hBnDnLJZp-2">
          <mxGeometry relative="1" as="geometry" />
        </mxCell>
        <mxCell id="xoOHMYo-G51hBnDnLJZp-1" value="Quote" style="rounded=1;whiteSpace=wrap;html=1;" vertex="1" parent="1">
          <mxGeometry x="20" y="120" width="120" height="60" as="geometry" />
        </mxCell>
        <mxCell id="xoOHMYo-G51hBnDnLJZp-6" value="" style="edgeStyle=orthogonalEdgeStyle;rounded=0;orthogonalLoop=1;jettySize=auto;html=1;" edge="1" parent="1" source="xoOHMYo-G51hBnDnLJZp-2" target="xoOHMYo-G51hBnDnLJZp-5">
          <mxGeometry relative="1" as="geometry" />
        </mxCell>
        <mxCell id="xoOHMYo-G51hBnDnLJZp-9" value="" style="edgeStyle=orthogonalEdgeStyle;rounded=0;orthogonalLoop=1;jettySize=auto;html=1;" edge="1" parent="1" source="xoOHMYo-G51hBnDnLJZp-2" target="xoOHMYo-G51hBnDnLJZp-8">
          <mxGeometry relative="1" as="geometry" />
        </mxCell>
        <mxCell id="xoOHMYo-G51hBnDnLJZp-2" value="Sales Order" style="rounded=1;whiteSpace=wrap;html=1;" vertex="1" parent="1">
          <mxGeometry x="180" y="120" width="120" height="60" as="geometry" />
        </mxCell>
        <mxCell id="xoOHMYo-G51hBnDnLJZp-5" value="Payment" style="whiteSpace=wrap;html=1;rounded=1;" vertex="1" parent="1">
          <mxGeometry x="180" y="260" width="120" height="60" as="geometry" />
        </mxCell>
        <mxCell id="xoOHMYo-G51hBnDnLJZp-11" value="" style="edgeStyle=orthogonalEdgeStyle;rounded=0;orthogonalLoop=1;jettySize=auto;html=1;" edge="1" parent="1" source="xoOHMYo-G51hBnDnLJZp-8" target="xoOHMYo-G51hBnDnLJZp-10">
          <mxGeometry relative="1" as="geometry" />
        </mxCell>
        <mxCell id="xoOHMYo-G51hBnDnLJZp-8" value="Fulfillment" style="whiteSpace=wrap;html=1;rounded=1;" vertex="1" parent="1">
          <mxGeometry x="380" y="120" width="120" height="60" as="geometry" />
        </mxCell>
        <mxCell id="xoOHMYo-G51hBnDnLJZp-10" value="Invoice" style="whiteSpace=wrap;html=1;rounded=1;" vertex="1" parent="1">
          <mxGeometry x="580" y="120" width="120" height="60" as="geometry" />
        </mxCell>
        <mxCell id="xoOHMYo-G51hBnDnLJZp-17" value="" style="endArrow=none;dashed=1;html=1;dashPattern=1 3;strokeWidth=2;rounded=0;exitX=0.93;exitY=0.024;exitDx=0;exitDy=0;exitPerimeter=0;" edge="1" parent="1" source="xoOHMYo-G51hBnDnLJZp-2">
          <mxGeometry width="50" height="50" relative="1" as="geometry">
            <mxPoint x="280" y="180" as="sourcePoint" />
            <mxPoint x="300" y="70" as="targetPoint" />
            <Array as="points">
              <mxPoint x="300" y="90" />
            </Array>
          </mxGeometry>
        </mxCell>
        <mxCell id="xoOHMYo-G51hBnDnLJZp-18" value="Dropshipping" style="rounded=1;whiteSpace=wrap;html=1;" vertex="1" parent="1">
          <mxGeometry x="230" y="10" width="120" height="60" as="geometry" />
        </mxCell>
        <mxCell id="xoOHMYo-G51hBnDnLJZp-22" value="" style="endArrow=classic;html=1;rounded=0;exitX=0.996;exitY=0.892;exitDx=0;exitDy=0;exitPerimeter=0;entryX=0.038;entryY=0.058;entryDx=0;entryDy=0;entryPerimeter=0;" edge="1" parent="1" source="xoOHMYo-G51hBnDnLJZp-18" target="xoOHMYo-G51hBnDnLJZp-8">
          <mxGeometry width="50" height="50" relative="1" as="geometry">
            <mxPoint x="280" y="130" as="sourcePoint" />
            <mxPoint x="350" y="130" as="targetPoint" />
          </mxGeometry>
        </mxCell>
      </root>
    </mxGraphModel>
  </diagram>
</mxfile>
